<svg xmlns="http://www.w3.org/2000/svg" viewBox="0 0 324 324" fill="currentColor" aria-label="An extra bed" role="img">
  <path fill-rule="evenodd" d="M 75 92.935 C 68.480 94.926, 64.403 97.903, 62.224 102.265 C 60.296 106.127, 60 108.317, 60 118.738 L 60 130.757 56.995 132.002 C 49.760 134.999, 46.815 141.519, 47.299 153.473 L 47.500 158.446 42.800 159.133 C 40.215 159.511, 37.628 160.112, 37.050 160.469 C 36.376 160.885, 36 167.910, 36 180.074 L 36 199.029 39.250 201.045 C 41.873 202.672, 43.953 203.017, 50.027 202.834 C 54.167 202.709, 58.104 202.946, 58.777 203.362 C 59.605 203.874, 60 207.254, 60 213.837 C 60 224.575, 61.318 228, 65.450 228 C 68.588 228, 69 226.495, 69 215.041 C 69 208.094, 69.388 204.923, 70.334 204.137 C 71.751 202.962, 253.161 202.364, 255.046 203.528 C 255.571 203.853, 256 208.306, 256 213.424 C 256 221.325, 256.313 223.128, 258.073 225.365 C 260.389 228.310, 263.470 228.824, 264.393 226.418 C 264.727 225.548, 265 220.428, 265 215.041 C 265 208.408, 265.404 204.920, 266.250 204.238 C 266.938 203.685, 271.725 203.038, 276.890 202.801 C 285.961 202.385, 286.377 202.262, 289.140 199.170 L 292 195.968 292 180.095 C 292 161.279, 291.472 159.990, 283.388 159.061 C 277.993 158.442, 277.913 158.225, 279.559 148.814 C 280.398 144.019, 277.186 137.436, 272.331 134 C 264.771 128.650, 265 129.224, 265 115.661 C 265 103.742, 264.906 103.199, 262.250 99.713 C 260.714 97.697, 257.431 95.198, 254.815 94.052 C 250.203 92.032, 248.764 92.001, 163.815 92.086 C 116.342 92.133, 76.375 92.515, 75 92.935 M 160.333 103 C 112.391 103.275, 72.980 103.725, 72.751 104 C 69.495 107.927, 69 109.925, 69 119.151 C 69 128.962, 70.037 132, 73.384 132 C 75.195 132, 79.489 136.856, 82.021 141.769 C 83.628 144.885, 84.040 146.910, 83.550 149.269 C 83.180 151.046, 82.793 153.850, 82.689 155.500 L 82.500 158.500 163 158.500 L 243.500 158.500 243.500 149.794 L 243.500 141.087 247.956 136.546 C 250.407 134.048, 253.220 131.748, 254.206 131.435 C 255.804 130.927, 256 129.511, 256 118.456 C 256 106.674, 255.886 105.974, 253.750 104.627 C 252.512 103.847, 250.600 103.049, 249.500 102.854 C 248.400 102.659, 208.275 102.725, 160.333 103 M 110.306 121.413 C 107.795 123.573, 107.500 124.476, 107.500 130 C 107.500 135.496, 107.802 136.433, 110.254 138.542 C 116.745 144.125, 126.811 141.702, 129.118 134 C 130.785 128.438, 128.998 122.567, 125.011 120.506 C 120.426 118.135, 113.630 118.554, 110.306 121.413 M 155.077 121.589 C 152.299 123.926, 152 124.736, 152 129.915 C 152 134.573, 152.423 136.048, 154.250 137.759 C 161.480 144.532, 172.420 141.705, 175.407 132.292 C 176.380 129.227, 171.792 120.445, 168.799 119.643 C 163.465 118.214, 158.200 118.961, 155.077 121.589 M 199.400 122.400 C 196.660 125.140, 196 126.581, 196 129.823 C 196 137.555, 204.127 143.433, 211.467 141.011 C 216.498 139.350, 220 134.759, 220 129.823 C 220 126.581, 219.340 125.140, 216.600 122.400 C 213.605 119.405, 212.580 119, 208 119 C 203.420 119, 202.395 119.405, 199.400 122.400 M 58.687 142.805 C 53.803 147.903, 56.270 155.775, 63.306 157.541 C 66.829 158.425, 71.767 155.556, 73.701 151.501 C 75.281 148.187, 75.252 147.979, 72.649 144.046 C 70.210 140.361, 69.588 140, 65.673 140 C 62.268 140, 60.815 140.583, 58.687 142.805 M 254.589 143.077 C 250.060 148.459, 251.815 154.794, 258.442 156.981 C 262.528 158.329, 266.686 156.654, 269.352 152.586 C 271.612 149.137, 271.431 147.432, 268.381 143.433 C 266.115 140.462, 265.185 140, 261.470 140 C 257.905 140, 256.739 140.521, 254.589 143.077 M 44.607 169.582 C 43.710 171.918, 43.899 190.292, 44.835 191.767 C 45.476 192.777, 69.280 193.031, 162.515 193.021 C 226.797 193.014, 279.777 192.623, 280.248 192.152 C 281.278 191.122, 281.570 170.732, 280.578 169.127 C 280.068 168.302, 248.479 168, 162.548 168 C 56.477 168, 45.156 168.152, 44.607 169.582"/>
</svg>
